<svg width="24" height="25" viewBox="0 0 24 25" fill="none" xmlns="http://www.w3.org/2000/svg">
<path d="M22 11.1094V8.30938C22 7.18927 22 6.62922 21.782 6.20139C21.5903 5.82507 21.2843 5.51911 20.908 5.32736C20.4802 5.10938 19.9201 5.10938 18.8 5.10938H5.2C4.0799 5.10938 3.51984 5.10938 3.09202 5.32736C2.71569 5.51911 2.40973 5.82507 2.21799 6.20139C2 6.62922 2 7.18927 2 8.30937V11.9094C2 13.0295 2 13.5895 2.21799 14.0174C2.40973 14.3937 2.71569 14.6996 3.09202 14.8914C3.51984 15.1094 4.0799 15.1094 5.2 15.1094H11M12 10.1094H12.005M17 10.1094H17.005M7 10.1094H7.005M19.25 17.1094V15.3594C19.25 14.3929 18.4665 13.6094 17.5 13.6094C16.5335 13.6094 15.75 14.3929 15.75 15.3594V17.1094M12.25 10.1094C12.25 10.2474 12.1381 10.3594 12 10.3594C11.8619 10.3594 11.75 10.2474 11.75 10.1094C11.75 9.9713 11.8619 9.85938 12 9.85938C12.1381 9.85938 12.25 9.9713 12.25 10.1094ZM17.25 10.1094C17.25 10.2474 17.1381 10.3594 17 10.3594C16.8619 10.3594 16.75 10.2474 16.75 10.1094C16.75 9.9713 16.8619 9.85938 17 9.85938C17.1381 9.85938 17.25 9.9713 17.25 10.1094ZM7.25 10.1094C7.25 10.2474 7.13807 10.3594 7 10.3594C6.86193 10.3594 6.75 10.2474 6.75 10.1094C6.75 9.9713 6.86193 9.85938 7 9.85938C7.13807 9.85938 7.25 9.9713 7.25 10.1094ZM15.6 21.1094H19.4C19.9601 21.1094 20.2401 21.1094 20.454 21.0004C20.6422 20.9045 20.7951 20.7515 20.891 20.5634C21 20.3495 21 20.0694 21 19.5094V18.7094C21 18.1493 21 17.8693 20.891 17.6554C20.7951 17.4672 20.6422 17.3142 20.454 17.2184C20.2401 17.1094 19.9601 17.1094 19.4 17.1094H15.6C15.0399 17.1094 14.7599 17.1094 14.546 17.2184C14.3578 17.3142 14.2049 17.4672 14.109 17.6554C14 17.8693 14 18.1493 14 18.7094V19.5094C14 20.0694 14 20.3495 14.109 20.5634C14.2049 20.7515 14.3578 20.9045 14.546 21.0004C14.7599 21.1094 15.0399 21.1094 15.6 21.1094Z" stroke="#D0D5DD" stroke-width="2" stroke-linecap="round" stroke-linejoin="round"/>
</svg>
