<svg width="24" height="25" viewBox="0 0 24 25" fill="none" xmlns="http://www.w3.org/2000/svg">
<path d="M8 15.2539V17.2539M12 11.2539V17.2539M16 7.25391V17.2539M7.8 21.2539H16.2C17.8802 21.2539 18.7202 21.2539 19.362 20.9269C19.9265 20.6393 20.3854 20.1804 20.673 19.6159C21 18.9741 21 18.1341 21 16.4539V8.05391C21 6.37375 21 5.53367 20.673 4.89193C20.3854 4.32745 19.9265 3.86851 19.362 3.58089C18.7202 3.25391 17.8802 3.25391 16.2 3.25391H7.8C6.11984 3.25391 5.27976 3.25391 4.63803 3.58089C4.07354 3.86851 3.6146 4.32745 3.32698 4.89193C3 5.53367 3 6.37375 3 8.05391V16.4539C3 18.1341 3 18.9741 3.32698 19.6159C3.6146 20.1804 4.07354 20.6393 4.63803 20.9269C5.27976 21.2539 6.11984 21.2539 7.8 21.2539Z" stroke="white" stroke-width="2" stroke-linecap="round" stroke-linejoin="round"/>
</svg>
