<svg width="11" height="3" viewBox="0 0 11 3" fill="none" xmlns="http://www.w3.org/2000/svg">
<path d="M1.53143 2.09446C1.25965 2.09446 1.02598 1.99834 0.830433 1.80611C0.634884 1.61056 0.537109 1.37524 0.537109 1.10014C0.537109 0.828362 0.634884 0.596354 0.830433 0.404119C1.02598 0.20857 1.25965 0.110795 1.53143 0.110795C1.80321 0.110795 2.03687 0.20857 2.23242 0.404119C2.42797 0.596354 2.52575 0.828362 2.52575 1.10014C2.52575 1.28243 2.47934 1.44981 2.38654 1.60227C2.29705 1.75142 2.17773 1.87074 2.02859 1.96023C1.87944 2.04972 1.71372 2.09446 1.53143 2.09446ZM5.49627 2.09446C5.22449 2.09446 4.99083 1.99834 4.79528 1.80611C4.59973 1.61056 4.50195 1.37524 4.50195 1.10014C4.50195 0.828362 4.59973 0.596354 4.79528 0.404119C4.99083 0.20857 5.22449 0.110795 5.49627 0.110795C5.76805 0.110795 6.00172 0.20857 6.19727 0.404119C6.39281 0.596354 6.49059 0.828362 6.49059 1.10014C6.49059 1.28243 6.44419 1.44981 6.35139 1.60227C6.2619 1.75142 6.14258 1.87074 5.99343 1.96023C5.84428 2.04972 5.67856 2.09446 5.49627 2.09446ZM9.46112 2.09446C9.18933 2.09446 8.95567 1.99834 8.76012 1.80611C8.56457 1.61056 8.4668 1.37524 8.4668 1.10014C8.4668 0.828362 8.56457 0.596354 8.76012 0.404119C8.95567 0.20857 9.18933 0.110795 9.46112 0.110795C9.7329 0.110795 9.96656 0.20857 10.1621 0.404119C10.3577 0.596354 10.4554 0.828362 10.4554 1.10014C10.4554 1.28243 10.409 1.44981 10.3162 1.60227C10.2267 1.75142 10.1074 1.87074 9.95827 1.96023C9.80913 2.04972 9.64341 2.09446 9.46112 2.09446Z" fill="#475467"/>
</svg>
