<svg width="24" height="25" viewBox="0 0 24 25" fill="none" xmlns="http://www.w3.org/2000/svg">
<path d="M11 4.96875H7.8C6.11984 4.96875 5.27976 4.96875 4.63803 5.29573C4.07354 5.58335 3.6146 6.04229 3.32698 6.60678C3 7.24851 3 8.08859 3 9.76875V17.1687C3 18.8489 3 19.689 3.32698 20.3307C3.6146 20.8952 4.07354 21.3541 4.63803 21.6418C5.27976 21.9688 6.11984 21.9688 7.8 21.9688H15.2C16.8802 21.9688 17.7202 21.9688 18.362 21.6418C18.9265 21.3541 19.3854 20.8952 19.673 20.3307C20 19.689 20 18.8489 20 17.1687V13.9688M13 17.9688H7M15 13.9688H7M20.1213 4.84743C21.2929 6.019 21.2929 7.9185 20.1213 9.09007C18.9497 10.2616 17.0503 10.2616 15.8787 9.09007C14.7071 7.9185 14.7071 6.019 15.8787 4.84743C17.0503 3.67586 18.9497 3.67586 20.1213 4.84743Z" stroke="#D0D5DD" stroke-width="2" stroke-linecap="round" stroke-linejoin="round"/>
</svg>
