<svg width="24" height="25" viewBox="0 0 24 25" fill="none" xmlns="http://www.w3.org/2000/svg">
<path d="M7.5 11.1836H7.51M12 11.1836H12.01M16.5 11.1836H16.51M7 18.6836V21.0191C7 21.5519 7 21.8184 7.10923 21.9552C7.20422 22.0742 7.34827 22.1434 7.50054 22.1433C7.67563 22.1431 7.88367 21.9767 8.29976 21.6438L10.6852 19.7354C11.1725 19.3456 11.4162 19.1507 11.6875 19.012C11.9282 18.8891 12.1844 18.7992 12.4492 18.7448C12.7477 18.6836 13.0597 18.6836 13.6837 18.6836H16.2C17.8802 18.6836 18.7202 18.6836 19.362 18.3566C19.9265 18.069 20.3854 17.6101 20.673 17.0456C21 16.4038 21 15.5638 21 13.8836V8.48359C21 6.80344 21 5.96336 20.673 5.32162C20.3854 4.75714 19.9265 4.29819 19.362 4.01057C18.7202 3.68359 17.8802 3.68359 16.2 3.68359H7.8C6.11984 3.68359 5.27976 3.68359 4.63803 4.01057C4.07354 4.29819 3.6146 4.75714 3.32698 5.32162C3 5.96336 3 6.80344 3 8.48359V14.6836C3 15.6136 3 16.0786 3.10222 16.4601C3.37962 17.4953 4.18827 18.304 5.22354 18.5814C5.60504 18.6836 6.07003 18.6836 7 18.6836ZM8 11.1836C8 11.4597 7.77614 11.6836 7.5 11.6836C7.22386 11.6836 7 11.4597 7 11.1836C7 10.9075 7.22386 10.6836 7.5 10.6836C7.77614 10.6836 8 10.9075 8 11.1836ZM12.5 11.1836C12.5 11.4597 12.2761 11.6836 12 11.6836C11.7239 11.6836 11.5 11.4597 11.5 11.1836C11.5 10.9075 11.7239 10.6836 12 10.6836C12.2761 10.6836 12.5 10.9075 12.5 11.1836ZM17 11.1836C17 11.4597 16.7761 11.6836 16.5 11.6836C16.2239 11.6836 16 11.4597 16 11.1836C16 10.9075 16.2239 10.6836 16.5 10.6836C16.7761 10.6836 17 10.9075 17 11.1836Z" stroke="#D0D5DD" stroke-width="2" stroke-linecap="round" stroke-linejoin="round"/>
</svg>
