<svg width="56" height="56" viewBox="0 0 56 56" fill="none" xmlns="http://www.w3.org/2000/svg">
<rect x="4" y="4" width="48" height="48" rx="24" fill="#F4EBFF"/>
<path d="M27 20H23.8C22.1198 20 21.2798 20 20.638 20.327C20.0735 20.6146 19.6146 21.0735 19.327 21.638C19 22.2798 19 23.1198 19 24.8V32.2C19 33.8802 19 34.7202 19.327 35.362C19.6146 35.9265 20.0735 36.3854 20.638 36.673C21.2798 37 22.1198 37 23.8 37H31.2C32.8802 37 33.7202 37 34.362 36.673C34.9265 36.3854 35.3854 35.9265 35.673 35.362C36 34.7202 36 33.8802 36 32.2V29M29 33H23M31 29H23M36.1213 19.8787C37.2929 21.0503 37.2929 22.9497 36.1213 24.1213C34.9497 25.2929 33.0503 25.2929 31.8787 24.1213C30.7071 22.9497 30.7071 21.0503 31.8787 19.8787C33.0503 18.7071 34.9497 18.7071 36.1213 19.8787Z" stroke="#7F56D9" stroke-width="2" stroke-linecap="round" stroke-linejoin="round"/>
<rect x="4" y="4" width="48" height="48" rx="24" stroke="#F9F5FF" stroke-width="8"/>
</svg>
