<svg width="57" height="56" viewBox="0 0 57 56" fill="none" xmlns="http://www.w3.org/2000/svg">
<rect x="4.66602" y="4" width="48" height="48" rx="24" fill="#F4EBFF"/>
<path d="M25.666 28L27.666 30L32.166 25.5M25.8679 36.6009C26.1957 36.5575 26.5267 36.6464 26.7878 36.8475L27.9911 37.7708C28.3888 38.0764 28.9421 38.0764 29.3387 37.7708L30.5875 36.812C30.8208 36.6331 31.1153 36.5542 31.4063 36.5931L32.9684 36.7986C33.4651 36.8642 33.9439 36.5875 34.1361 36.1242L34.7372 34.6709C34.8494 34.3987 35.0649 34.1832 35.3371 34.0709L36.7903 33.4698C37.2536 33.2787 37.5303 32.7988 37.4647 32.3021L37.267 30.7966C37.2236 30.4688 37.3125 30.1377 37.5136 29.8766L38.4369 28.6733C38.7424 28.2755 38.7424 27.7222 38.4369 27.3256L37.4781 26.0767C37.2992 25.8434 37.2203 25.549 37.2592 25.2579L37.4647 23.6957C37.5303 23.199 37.2536 22.7201 36.7903 22.5279L35.3371 21.9268C35.0649 21.8146 34.8494 21.5991 34.7372 21.3269L34.1361 19.8736C33.945 19.4102 33.4651 19.1336 32.9684 19.1991L31.4063 19.4047C31.1153 19.4447 30.8208 19.3658 30.5886 19.188L29.3398 18.2292C28.9421 17.9236 28.3888 17.9236 27.9922 18.2292L26.7434 19.188C26.5101 19.3658 26.2157 19.4447 25.9246 19.4069L24.3625 19.2014C23.8659 19.1358 23.387 19.4125 23.1948 19.8758L22.5949 21.3291C22.4815 21.6002 22.266 21.8157 21.9949 21.9291L20.5417 22.529C20.0784 22.7213 19.8018 23.2001 19.8673 23.6968L20.0728 25.259C20.1106 25.5501 20.0317 25.8445 19.854 26.0767L18.8952 27.3256C18.5896 27.7233 18.5896 28.2767 18.8952 28.6733L19.854 29.9222C20.0328 30.1555 20.1117 30.4499 20.0728 30.741L19.8673 32.3032C19.8018 32.7999 20.0784 33.2787 20.5417 33.471L21.9949 34.0721C22.2671 34.1843 22.4826 34.3998 22.5949 34.672L23.1959 36.1253C23.387 36.5887 23.867 36.8653 24.3636 36.7998L25.8679 36.6009Z" stroke="#7F56D9" stroke-width="2" stroke-linecap="round" stroke-linejoin="round"/>
<rect x="4.66602" y="4" width="48" height="48" rx="24" stroke="#F9F5FF" stroke-width="8"/>
</svg>
