<svg width="24" height="25" viewBox="0 0 24 25" fill="none" xmlns="http://www.w3.org/2000/svg">
<path d="M16.5 14.8242H16.51M3 5.82422V19.8242C3 20.9288 3.89543 21.8242 5 21.8242H19C20.1046 21.8242 21 20.9288 21 19.8242V9.82422C21 8.71965 20.1046 7.82422 19 7.82422L5 7.82422C3.89543 7.82422 3 6.92879 3 5.82422ZM3 5.82422C3 4.71965 3.89543 3.82422 5 3.82422H17M17 14.8242C17 15.1004 16.7761 15.3242 16.5 15.3242C16.2239 15.3242 16 15.1004 16 14.8242C16 14.5481 16.2239 14.3242 16.5 14.3242C16.7761 14.3242 17 14.5481 17 14.8242Z" stroke="#D0D5DD" stroke-width="2" stroke-linecap="round" stroke-linejoin="round"/>
</svg>
