<svg width="20" height="20" viewBox="0 0 20 20" fill="none" xmlns="http://www.w3.org/2000/svg">
<g clip-path="url(#clip0_3306_2667)">
<path d="M8.74935 1.6703C8.18681 1.67792 7.8491 1.71049 7.57603 1.84962C7.26243 2.00941 7.00746 2.26438 6.84767 2.57798C6.70854 2.85105 6.67597 3.18876 6.66835 3.7513M16.2493 1.6703C16.8119 1.67792 17.1496 1.71049 17.4227 1.84962C17.7363 2.00941 17.9912 2.26438 18.151 2.57798C18.2902 2.85105 18.3227 3.18876 18.3304 3.75129M18.3304 11.2513C18.3227 11.8138 18.2902 12.1516 18.151 12.4246C17.9912 12.7382 17.7363 12.9932 17.4227 13.153C17.1496 13.2921 16.8119 13.3247 16.2493 13.3323M18.3327 6.66796V8.33463M11.6661 1.66797H13.3326M4.33268 18.3346H10.666C11.5994 18.3346 12.0661 18.3346 12.4227 18.153C12.7363 17.9932 12.9912 17.7382 13.151 17.4246C13.3327 17.0681 13.3327 16.6014 13.3327 15.668V9.33463C13.3327 8.40121 13.3327 7.9345 13.151 7.57798C12.9912 7.26438 12.7363 7.00941 12.4227 6.84962C12.0661 6.66797 11.5994 6.66797 10.666 6.66797H4.33268C3.39926 6.66797 2.93255 6.66797 2.57603 6.84962C2.26243 7.00941 2.00746 7.26438 1.84767 7.57798C1.66602 7.9345 1.66602 8.40121 1.66602 9.33463V15.668C1.66602 16.6014 1.66602 17.0681 1.84767 17.4246C2.00746 17.7382 2.26243 17.9932 2.57603 18.153C2.93255 18.3346 3.39926 18.3346 4.33268 18.3346Z" stroke="#7F56D9" stroke-width="1.66667" stroke-linecap="round" stroke-linejoin="round"/>
</g>
<defs>
<clipPath id="clip0_3306_2667">
<rect width="20" height="20" fill="white"/>
</clipPath>
</defs>
</svg>
