<svg width="31" height="22" viewBox="0 0 31 22" fill="none" xmlns="http://www.w3.org/2000/svg">
<path fill-rule="evenodd" clip-rule="evenodd" d="M8.50881 15.1784L10.8071 19.2766H18.4596C19.3228 19.2766 20.0803 20.0251 20.6407 20.7302C20.7637 20.8858 20.8896 21.0372 21.0184 21.1835L22.2113 19.0567H20.0754C19.167 19.0567 18.2731 18.2539 17.4877 17.3221C16.3016 15.9143 14.8213 15.3008 13.1564 15.1867C13.0863 15.1821 13.0151 15.1798 12.9449 15.1798C12.5316 15.1789 10.3698 15.1785 8.50881 15.1784ZM4.4428 7.9257L7.13717 12.7314H12.5806C13.5928 12.7314 14.4801 13.6092 15.1376 14.4361C16.4872 16.1337 18.027 17.4036 21.0193 17.4036H23.1379L25.9014 12.4735H14.4743C13.4102 12.4735 12.3614 11.5322 11.4406 10.4394C10.0401 8.77726 8.29063 8.05922 6.32106 7.93262C6.25474 7.92849 6.18744 7.92638 6.12112 7.92638C5.9058 7.92599 5.24063 7.9258 4.4428 7.9257ZM0 0L2.51461 4.48562H4.44571C5.45789 4.48562 6.34508 5.36352 7.00256 6.19028C8.35214 7.88793 9.89304 9.15782 12.8844 9.15782H27.7605L30.524 4.22772H6.3403C5.27526 4.22772 4.22755 3.28648 3.30669 2.19364C2.35218 1.06169 1.23615 0.367674 0 0Z" fill="#6936F5"/>
</svg>
